<?xml version="1.0" encoding="utf-8"?>
<!-- Svg Vector Icons : http://www.onlinewebfonts.com/icon -->
<!DOCTYPE svg PUBLIC "-//W3C//DTD SVG 1.1//EN" "http://www.w3.org/Graphics/SVG/1.1/DTD/svg11.dtd">
<svg version="1.1" xmlns="http://www.w3.org/2000/svg" xmlns:xlink="http://www.w3.org/1999/xlink" x="0px" y="0px" viewBox="0 0 1000 1000" enable-background="new 0 0 1000 1000" xml:space="preserve">
<metadata> Svg Vector Icons : http://www.onlinewebfonts.com/icon </metadata>
<g><g><path d="M500,10C229.4,10,10,229.4,10,500c0,207.3,129,384.1,310.8,455.7c-0.8-16.8-0.7-103.4,59.7-362.3c8.1-86.4-3.1-117-3.1-152.9c0-81.4,42.3-98.6,67-98.6c35.2,0,83.9,13.5,83.9,70.2c0,65-53,82.1-53,82.1s-3.8,16.6-8.2,62.8c-4.4,46.3,14.1,96.4,89.6,96.4c121,0,139.7-168,139.7-214.2c0-63.9-46.8-193.5-192.1-193.5C310.4,245.7,277,419.4,277,465.7c0,19.8,5.5,54.8,9.2,69.7c36.6,5.9,32.8,56,17.2,70.3c-17.4,15.6-106.8,34.3-106.8-162c0-186.9,166.6-283.2,312.8-283.2c139.2,0,290.8,96,290.8,281c0,165.1-118.7,295.2-243.4,295.2c-74.9,0-114.6-61.7-114.6-61.7c0,57.7-106,256.2-119.6,281.4C377.6,977.8,437.3,990,500,990c270.6,0,490-219.4,490-490C990,229.3,770.6,10,500,10z" fill="#000"/></g><g></g><g></g><g></g><g></g><g></g><g></g><g></g><g></g><g></g><g></g><g></g><g></g><g></g><g></g><g></g></g>
</svg>